<svg width="98" height="18" viewBox="0 0 98 18" fill="none" xmlns="http://www.w3.org/2000/svg">
<path d="M86.4691 4.90796C87.5795 3.17952 88.1341 2.31485 88.9661 2.31414C89.7981 2.31344 90.3554 3.17717 91.4712 4.90373L91.7592 5.3508C92.0763 5.84168 92.2358 6.08667 92.482 6.24838C92.7283 6.4101 93.0353 6.46978 93.6504 6.59003L94.2087 6.6987C96.3704 7.12003 97.4517 7.33114 97.7092 8.04662C97.9676 8.76209 97.2319 9.50793 95.7605 11.0005L95.3808 11.3855C94.9629 11.8099 94.7545 12.0221 94.6598 12.2843C94.5672 12.5465 94.5986 12.8292 94.6626 13.3936L94.7213 13.9089C94.9476 15.8983 95.0598 16.8931 94.3877 17.3356C93.7156 17.779 92.7031 17.3764 90.6793 16.572L90.155 16.3631C89.58 16.1346 89.2925 16.0203 88.9877 16.0206C88.6828 16.0208 88.3957 16.1356 87.8204 16.3651L87.2977 16.5749C85.2765 17.3817 84.2653 17.787 83.5918 17.3447C82.9183 16.9033 83.0284 15.9084 83.2474 13.9186L83.3045 13.4041C83.3667 12.8387 83.3982 12.556 83.3028 12.2948C83.2093 12.0319 82.9992 11.8209 82.58 11.3972L82.198 11.0111C80.7229 9.5219 79.9849 8.77641 80.2401 8.0605C80.4973 7.34459 81.577 7.13254 83.7373 6.70756L84.2952 6.59795C84.91 6.47665 85.2168 6.41645 85.4626 6.25432C85.7093 6.09308 85.867 5.84693 86.1825 5.35552L86.4691 4.90796Z" fill="#A3A3A3"/>
<path d="M66.8317 4.92359C67.942 3.19514 68.4967 2.33047 69.3286 2.32977C70.1606 2.32906 70.718 3.19279 71.8338 4.91936L72.1218 5.36642C72.4388 5.8573 72.5984 6.10229 72.8446 6.26401C73.0908 6.42573 73.3978 6.48541 74.013 6.60566L74.5712 6.71433C76.7329 7.13566 77.8143 7.34677 78.0717 8.06224C78.3302 8.77772 77.5945 9.52356 76.1231 11.0161L75.7433 11.4011C75.3255 11.8255 75.117 12.0377 75.0223 12.2999C74.9297 12.5621 74.9612 12.8448 75.0251 13.4093L75.0838 13.9245C75.3102 15.914 75.4223 16.9087 74.7502 17.3512C74.0781 17.7946 73.0657 17.392 71.0419 16.5876L70.5176 16.3787C69.9426 16.1502 69.6551 16.0359 69.3502 16.0362C69.0453 16.0365 68.7582 16.1512 68.1829 16.3807L67.6603 16.5905C65.639 17.3974 64.6279 17.8026 63.9544 17.3603C63.2809 16.9189 63.3909 15.924 63.61 13.9342L63.667 13.4198C63.7292 12.8543 63.7608 12.5716 63.6653 12.3104C63.5719 12.0475 63.3617 11.8366 62.9425 11.4129L62.5605 11.0267C61.0855 9.53752 60.3474 8.79204 60.6026 8.07613C60.8598 7.36021 61.9395 7.14817 64.0999 6.72319L64.6578 6.61357C65.2725 6.49228 65.5794 6.43208 65.8251 6.26995C66.0719 6.10871 66.2296 5.86255 66.5451 5.37114L66.8317 4.92359Z" fill="#DB7495"/>
<path d="M27.5593 4.95874C28.6697 3.2303 29.2243 2.36563 30.0563 2.36492C30.8883 2.36422 31.4456 3.22795 32.5614 4.95451L32.8495 5.40158C33.1665 5.89246 33.326 6.13745 33.5722 6.29916C33.8185 6.46088 34.1255 6.52056 34.7406 6.64081L35.2989 6.74949C37.4606 7.17081 38.542 7.38192 38.7994 8.0974C39.0578 8.81287 38.3221 9.55871 36.8507 11.0513L36.471 11.4363C36.0531 11.8607 35.8447 12.0729 35.75 12.3351C35.6574 12.5973 35.6889 12.88 35.7528 13.4444L35.8115 13.9597C36.0378 15.9491 36.15 16.9438 35.4779 17.3863C34.8058 17.8297 33.7933 17.4271 31.7695 16.6228L31.2452 16.4139C30.6702 16.1854 30.3828 16.0711 30.0779 16.0714C29.773 16.0716 29.4859 16.1864 28.9106 16.4159L28.3879 16.6257C26.3667 17.4325 25.3555 17.8377 24.682 17.3955C24.0085 16.9541 24.1186 15.9592 24.3376 13.9694L24.3947 13.4549C24.4569 12.8895 24.4885 12.6067 24.393 12.3456C24.2995 12.0827 24.0894 11.8717 23.6702 11.448L23.2882 11.0619C21.8131 9.57268 21.0751 8.82719 21.3303 8.11128C21.5875 7.39537 22.6672 7.18333 24.8275 6.75834L25.3855 6.64873C26.0002 6.52744 26.307 6.46724 26.5528 6.3051C26.7995 6.14386 26.9573 5.89771 27.2727 5.4063L27.5593 4.95874Z" fill="#DB7495"/>
<path d="M47.1969 4.94312C48.3073 3.21467 48.8619 2.35 49.6939 2.3493C50.5258 2.3486 51.0832 3.21232 52.199 4.93889L52.487 5.38595C52.804 5.87683 52.9636 6.12182 53.2098 6.28354C53.456 6.44526 53.7631 6.50494 54.3782 6.62519L54.9365 6.73386C57.0982 7.15519 58.1795 7.3663 58.437 8.08177C58.6954 8.79725 57.9597 9.54309 56.4883 11.0357L56.1086 11.4207C55.6907 11.8451 55.4822 12.0573 55.3876 12.3195C55.295 12.5817 55.3264 12.8643 55.3904 13.4288L55.449 13.944C55.6754 15.9335 55.7876 16.9282 55.1155 17.3707C54.4433 17.8141 53.4309 17.4115 51.4071 16.6072L50.8828 16.3983C50.3078 16.1697 50.0203 16.0555 49.7154 16.0557C49.4106 16.056 49.1234 16.1707 48.5481 16.4002L48.0255 16.61C46.0042 17.4169 44.9931 17.8221 44.3196 17.3799C43.6461 16.9385 43.7561 15.9436 43.9752 13.9538L44.0323 13.4393C44.0944 12.8739 44.126 12.5911 44.0305 12.33C43.9371 12.067 43.727 11.8561 43.3077 11.4324L42.9258 11.0462C41.4507 9.55705 40.7127 8.81157 40.9678 8.09566C41.2251 7.37974 42.3047 7.1677 44.4651 6.74272L45.023 6.6331C45.6378 6.51181 45.9446 6.45161 46.1903 6.28948C46.4371 6.12824 46.5948 5.88208 46.9103 5.39067L47.1969 4.94312Z" fill="#DB7495"/>
<path d="M7.92346 4.97456C9.03373 3.24614 9.58835 2.38149 10.4203 2.3808C11.2523 2.38012 11.8097 3.24386 12.9256 4.97045L13.2136 5.41753C13.5306 5.90841 13.6902 6.15341 13.9364 6.31513C14.1827 6.47685 14.4897 6.53654 15.1048 6.65681L15.6631 6.76549C17.8248 7.18687 18.9062 7.39801 19.1637 8.11349C19.4222 8.82897 18.6865 9.5748 17.2151 11.0673L16.8354 11.4523C16.4176 11.8767 16.2091 12.0889 16.1145 12.3511C16.0219 12.6133 16.0534 12.896 16.1173 13.4604L16.176 13.9757C16.4025 15.9651 16.5147 16.9599 15.8426 17.4024C15.1705 17.8457 14.1581 17.4431 12.1342 16.6387L11.6099 16.4298C11.0349 16.2013 10.7474 16.087 10.4425 16.0872C10.1376 16.0875 9.85051 16.2022 9.27523 16.4317L8.75262 16.6415C6.73138 17.4483 5.72025 17.8535 5.04673 17.4112C4.37321 16.9698 4.48321 15.9749 4.70219 13.9851L4.75923 13.4707C4.82136 12.9052 4.85294 12.6225 4.75743 12.3613C4.66399 12.0984 4.45385 11.8874 4.0346 11.4637L3.65262 11.0776C2.17747 9.58836 1.43938 8.84285 1.69453 8.12695C1.95174 7.41104 3.0314 7.19902 5.19175 6.7741L5.74966 6.66449C6.36439 6.54322 6.67124 6.48302 6.91695 6.3209C7.16369 6.15966 7.32142 5.91351 7.63687 5.42211L7.92346 4.97456Z" fill="#DB7495"/>
</svg>
