<svg width="22" height="22" viewBox="0 0 22 22" fill="none" xmlns="http://www.w3.org/2000/svg">
<path d="M21.5352 19.144L15.5116 13.1604C16.6159 11.4698 17.0536 9.42972 16.7401 7.43498C16.4266 5.44024 15.3841 3.63278 13.8144 2.36255C12.2448 1.09231 10.2597 0.44966 8.24339 0.559018C6.22712 0.668376 4.32315 1.52196 2.9001 2.95452C1.47705 4.38707 0.636146 6.29668 0.540208 8.31363C0.444269 10.3306 1.10012 12.3114 2.38077 13.8725C3.66142 15.4337 5.47578 16.4642 7.47256 16.7644C9.46934 17.0646 11.5065 16.6133 13.1896 15.4978L19.2132 21.4815L21.5352 19.144ZM2.86271 8.72238C2.85202 5.51089 5.45609 2.88943 8.66758 2.87875C11.8791 2.86806 14.5005 5.47213 14.5112 8.68362C14.5219 11.8951 11.9178 14.5166 8.70634 14.5273C5.49485 14.5379 2.87339 11.9339 2.86271 8.72238Z" fill="#005351"/>
</svg>
